<mxfile host="app.diagrams.net" agent="Mozilla/5.0 (Macintosh; Intel Mac OS X 10_15_7) AppleWebKit/537.36 (KHTML, like Gecko) Chrome/137.0.0.0 Safari/537.36" version="27.1.4">
  <diagram name="Page-1" id="p3Ar0vj35QazGbm0aZXg">
    <mxGraphModel dx="2818" dy="1567" grid="1" gridSize="10" guides="1" tooltips="1" connect="1" arrows="1" fold="1" page="1" pageScale="1" pageWidth="1169" pageHeight="1654" math="0" shadow="0">
      <root>
        <mxCell id="0" />
        <mxCell id="1" parent="0" />
        <mxCell id="nWqqAQrWBzdfev1KE0Zd-8" style="edgeStyle=orthogonalEdgeStyle;rounded=0;orthogonalLoop=1;jettySize=auto;html=1;entryX=0.5;entryY=0;entryDx=0;entryDy=0;" parent="1" source="nWqqAQrWBzdfev1KE0Zd-2" target="nWqqAQrWBzdfev1KE0Zd-7" edge="1">
          <mxGeometry relative="1" as="geometry" />
        </mxCell>
        <mxCell id="nWqqAQrWBzdfev1KE0Zd-9" style="edgeStyle=orthogonalEdgeStyle;rounded=0;orthogonalLoop=1;jettySize=auto;html=1;exitX=0;exitY=1;exitDx=0;exitDy=0;entryX=0.5;entryY=0;entryDx=0;entryDy=0;" parent="1" source="nWqqAQrWBzdfev1KE0Zd-2" target="nWqqAQrWBzdfev1KE0Zd-6" edge="1">
          <mxGeometry relative="1" as="geometry" />
        </mxCell>
        <mxCell id="nWqqAQrWBzdfev1KE0Zd-10" style="edgeStyle=orthogonalEdgeStyle;rounded=0;orthogonalLoop=1;jettySize=auto;html=1;exitX=1;exitY=1;exitDx=0;exitDy=0;entryX=0.5;entryY=0;entryDx=0;entryDy=0;" parent="1" source="nWqqAQrWBzdfev1KE0Zd-2" target="nWqqAQrWBzdfev1KE0Zd-5" edge="1">
          <mxGeometry relative="1" as="geometry" />
        </mxCell>
        <mxCell id="nWqqAQrWBzdfev1KE0Zd-11" style="edgeStyle=orthogonalEdgeStyle;rounded=0;orthogonalLoop=1;jettySize=auto;html=1;exitX=1;exitY=0.5;exitDx=0;exitDy=0;entryX=0.5;entryY=0;entryDx=0;entryDy=0;" parent="1" source="nWqqAQrWBzdfev1KE0Zd-2" target="nWqqAQrWBzdfev1KE0Zd-4" edge="1">
          <mxGeometry relative="1" as="geometry" />
        </mxCell>
        <mxCell id="nWqqAQrWBzdfev1KE0Zd-2" value="Безопасность данных" style="rounded=0;whiteSpace=wrap;html=1;fillColor=#60a917;fontColor=#ffffff;strokeColor=#2D7600;" parent="1" vertex="1">
          <mxGeometry x="1437" y="60" width="120" height="60" as="geometry" />
        </mxCell>
        <mxCell id="1yHpcf8Dr2Xt1hqAPo9w-18" style="edgeStyle=orthogonalEdgeStyle;rounded=0;orthogonalLoop=1;jettySize=auto;html=1;exitX=0;exitY=1;exitDx=0;exitDy=0;entryX=0.5;entryY=0;entryDx=0;entryDy=0;" parent="1" source="nWqqAQrWBzdfev1KE0Zd-4" target="1yHpcf8Dr2Xt1hqAPo9w-15" edge="1">
          <mxGeometry relative="1" as="geometry" />
        </mxCell>
        <mxCell id="1yHpcf8Dr2Xt1hqAPo9w-19" style="edgeStyle=orthogonalEdgeStyle;rounded=0;orthogonalLoop=1;jettySize=auto;html=1;exitX=0.5;exitY=1;exitDx=0;exitDy=0;entryX=0.25;entryY=0;entryDx=0;entryDy=0;" parent="1" source="nWqqAQrWBzdfev1KE0Zd-4" target="1yHpcf8Dr2Xt1hqAPo9w-16" edge="1">
          <mxGeometry relative="1" as="geometry" />
        </mxCell>
        <mxCell id="1yHpcf8Dr2Xt1hqAPo9w-20" style="edgeStyle=orthogonalEdgeStyle;rounded=0;orthogonalLoop=1;jettySize=auto;html=1;exitX=1;exitY=1;exitDx=0;exitDy=0;" parent="1" source="nWqqAQrWBzdfev1KE0Zd-4" target="1yHpcf8Dr2Xt1hqAPo9w-17" edge="1">
          <mxGeometry relative="1" as="geometry" />
        </mxCell>
        <mxCell id="nWqqAQrWBzdfev1KE0Zd-4" value="Секретные" style="rounded=0;whiteSpace=wrap;html=1;fillColor=#0050ef;fontColor=#ffffff;strokeColor=#001DBC;" parent="1" vertex="1">
          <mxGeometry x="2090" y="200" width="120" height="60" as="geometry" />
        </mxCell>
        <mxCell id="1yHpcf8Dr2Xt1hqAPo9w-11" style="edgeStyle=orthogonalEdgeStyle;rounded=0;orthogonalLoop=1;jettySize=auto;html=1;exitX=0;exitY=0.75;exitDx=0;exitDy=0;entryX=0.5;entryY=0;entryDx=0;entryDy=0;" parent="1" source="nWqqAQrWBzdfev1KE0Zd-5" target="1yHpcf8Dr2Xt1hqAPo9w-7" edge="1">
          <mxGeometry relative="1" as="geometry" />
        </mxCell>
        <mxCell id="1yHpcf8Dr2Xt1hqAPo9w-12" style="edgeStyle=orthogonalEdgeStyle;rounded=0;orthogonalLoop=1;jettySize=auto;html=1;exitX=0.25;exitY=1;exitDx=0;exitDy=0;entryX=0.5;entryY=0;entryDx=0;entryDy=0;" parent="1" source="nWqqAQrWBzdfev1KE0Zd-5" target="1yHpcf8Dr2Xt1hqAPo9w-8" edge="1">
          <mxGeometry relative="1" as="geometry" />
        </mxCell>
        <mxCell id="1yHpcf8Dr2Xt1hqAPo9w-13" style="edgeStyle=orthogonalEdgeStyle;rounded=0;orthogonalLoop=1;jettySize=auto;html=1;exitX=0.75;exitY=1;exitDx=0;exitDy=0;entryX=0.5;entryY=0;entryDx=0;entryDy=0;" parent="1" source="nWqqAQrWBzdfev1KE0Zd-5" target="1yHpcf8Dr2Xt1hqAPo9w-9" edge="1">
          <mxGeometry relative="1" as="geometry" />
        </mxCell>
        <mxCell id="1yHpcf8Dr2Xt1hqAPo9w-14" style="edgeStyle=orthogonalEdgeStyle;rounded=0;orthogonalLoop=1;jettySize=auto;html=1;exitX=1;exitY=0.75;exitDx=0;exitDy=0;entryX=0.5;entryY=0;entryDx=0;entryDy=0;" parent="1" source="nWqqAQrWBzdfev1KE0Zd-5" target="1yHpcf8Dr2Xt1hqAPo9w-10" edge="1">
          <mxGeometry relative="1" as="geometry" />
        </mxCell>
        <mxCell id="nWqqAQrWBzdfev1KE0Zd-5" value="Конфиденциальные" style="rounded=0;whiteSpace=wrap;html=1;fillColor=#0050ef;fontColor=#ffffff;strokeColor=#001DBC;" parent="1" vertex="1">
          <mxGeometry x="1650" y="200" width="120" height="60" as="geometry" />
        </mxCell>
        <mxCell id="1yHpcf8Dr2Xt1hqAPo9w-6" style="edgeStyle=orthogonalEdgeStyle;rounded=0;orthogonalLoop=1;jettySize=auto;html=1;exitX=0.5;exitY=1;exitDx=0;exitDy=0;" parent="1" source="nWqqAQrWBzdfev1KE0Zd-6" target="1yHpcf8Dr2Xt1hqAPo9w-3" edge="1">
          <mxGeometry relative="1" as="geometry" />
        </mxCell>
        <mxCell id="nWqqAQrWBzdfev1KE0Zd-6" value="Внутренние" style="rounded=0;whiteSpace=wrap;html=1;fillColor=#0050ef;fontColor=#ffffff;strokeColor=#001DBC;" parent="1" vertex="1">
          <mxGeometry x="1040" y="200" width="120" height="60" as="geometry" />
        </mxCell>
        <mxCell id="1yHpcf8Dr2Xt1hqAPo9w-4" style="edgeStyle=orthogonalEdgeStyle;rounded=0;orthogonalLoop=1;jettySize=auto;html=1;exitX=0;exitY=0.75;exitDx=0;exitDy=0;entryX=0.5;entryY=0;entryDx=0;entryDy=0;" parent="1" source="nWqqAQrWBzdfev1KE0Zd-7" target="1yHpcf8Dr2Xt1hqAPo9w-1" edge="1">
          <mxGeometry relative="1" as="geometry" />
        </mxCell>
        <mxCell id="1yHpcf8Dr2Xt1hqAPo9w-5" style="edgeStyle=orthogonalEdgeStyle;rounded=0;orthogonalLoop=1;jettySize=auto;html=1;exitX=1;exitY=0.75;exitDx=0;exitDy=0;entryX=0.5;entryY=0;entryDx=0;entryDy=0;" parent="1" source="nWqqAQrWBzdfev1KE0Zd-7" target="1yHpcf8Dr2Xt1hqAPo9w-2" edge="1">
          <mxGeometry relative="1" as="geometry" />
        </mxCell>
        <mxCell id="nWqqAQrWBzdfev1KE0Zd-7" value="Публичные" style="rounded=0;whiteSpace=wrap;html=1;fillColor=#0050ef;fontColor=#ffffff;strokeColor=#001DBC;" parent="1" vertex="1">
          <mxGeometry x="760" y="200" width="120" height="60" as="geometry" />
        </mxCell>
        <mxCell id="1yHpcf8Dr2Xt1hqAPo9w-1" value="Объекты недвижимости" style="rounded=1;whiteSpace=wrap;html=1;fillColor=#6a00ff;fontColor=#ffffff;strokeColor=#3700CC;" parent="1" vertex="1">
          <mxGeometry x="610" y="330" width="120" height="60" as="geometry" />
        </mxCell>
        <mxCell id="1yHpcf8Dr2Xt1hqAPo9w-2" value="Онлайн-туры" style="rounded=1;whiteSpace=wrap;html=1;fillColor=#6a00ff;fontColor=#ffffff;strokeColor=#3700CC;" parent="1" vertex="1">
          <mxGeometry x="860" y="330" width="120" height="60" as="geometry" />
        </mxCell>
        <mxCell id="1yHpcf8Dr2Xt1hqAPo9w-3" value="Аналитика и отчетность" style="rounded=1;whiteSpace=wrap;html=1;fillColor=#6a00ff;fontColor=#ffffff;strokeColor=#3700CC;" parent="1" vertex="1">
          <mxGeometry x="1040" y="330" width="120" height="60" as="geometry" />
        </mxCell>
        <mxCell id="1yHpcf8Dr2Xt1hqAPo9w-7" value="Данные ЖКХ" style="rounded=1;whiteSpace=wrap;html=1;fillColor=#6a00ff;fontColor=#ffffff;strokeColor=#3700CC;" parent="1" vertex="1">
          <mxGeometry x="1410" y="330" width="120" height="60" as="geometry" />
        </mxCell>
        <mxCell id="1yHpcf8Dr2Xt1hqAPo9w-8" value="Данные собственников" style="rounded=1;whiteSpace=wrap;html=1;fillColor=#6a00ff;fontColor=#ffffff;strokeColor=#3700CC;" parent="1" vertex="1">
          <mxGeometry x="1550" y="330" width="120" height="60" as="geometry" />
        </mxCell>
        <mxCell id="1yHpcf8Dr2Xt1hqAPo9w-9" value="Данные клиентов" style="rounded=1;whiteSpace=wrap;html=1;fillColor=#6a00ff;fontColor=#ffffff;strokeColor=#3700CC;" parent="1" vertex="1">
          <mxGeometry x="1690" y="330" width="120" height="60" as="geometry" />
        </mxCell>
        <mxCell id="1yHpcf8Dr2Xt1hqAPo9w-10" value="IoT, данные о просмотрах/онлайн турах" style="rounded=1;whiteSpace=wrap;html=1;fillColor=#6a00ff;fontColor=#ffffff;strokeColor=#3700CC;" parent="1" vertex="1">
          <mxGeometry x="1830" y="330" width="120" height="60" as="geometry" />
        </mxCell>
        <mxCell id="1yHpcf8Dr2Xt1hqAPo9w-15" value="Бухгалтерия и финансы" style="rounded=1;whiteSpace=wrap;html=1;fillColor=#6a00ff;fontColor=#ffffff;strokeColor=#3700CC;" parent="1" vertex="1">
          <mxGeometry x="1970" y="330" width="120" height="60" as="geometry" />
        </mxCell>
        <mxCell id="1yHpcf8Dr2Xt1hqAPo9w-16" value="Инфромация по сделкам" style="rounded=1;whiteSpace=wrap;html=1;fillColor=#6a00ff;fontColor=#ffffff;strokeColor=#3700CC;" parent="1" vertex="1">
          <mxGeometry x="2110" y="330" width="120" height="60" as="geometry" />
        </mxCell>
        <mxCell id="1yHpcf8Dr2Xt1hqAPo9w-17" value="Логины, пароли, логи, ключи API" style="rounded=1;whiteSpace=wrap;html=1;fillColor=#6a00ff;fontColor=#ffffff;strokeColor=#3700CC;" parent="1" vertex="1">
          <mxGeometry x="2250" y="330" width="120" height="60" as="geometry" />
        </mxCell>
        <mxCell id="zdhvOJfHrWpX8R4a8Kni-6" value="" style="shape=table;startSize=0;container=1;collapsible=0;childLayout=tableLayout;fontSize=16;" vertex="1" parent="1">
          <mxGeometry x="380" y="410" width="2020" height="1226" as="geometry" />
        </mxCell>
        <mxCell id="zdhvOJfHrWpX8R4a8Kni-7" value="" style="shape=tableRow;horizontal=0;startSize=0;swimlaneHead=0;swimlaneBody=0;strokeColor=inherit;top=0;left=0;bottom=0;right=0;collapsible=0;dropTarget=0;fillColor=none;points=[[0,0.5],[1,0.5]];portConstraint=eastwest;fontSize=16;" vertex="1" parent="zdhvOJfHrWpX8R4a8Kni-6">
          <mxGeometry width="2020" height="90" as="geometry" />
        </mxCell>
        <mxCell id="zdhvOJfHrWpX8R4a8Kni-8" value="Риск" style="shape=partialRectangle;html=1;whiteSpace=wrap;connectable=0;strokeColor=inherit;overflow=hidden;fillColor=none;top=0;left=0;bottom=0;right=0;pointerEvents=1;fontSize=16;" vertex="1" parent="zdhvOJfHrWpX8R4a8Kni-7">
          <mxGeometry width="219" height="90" as="geometry">
            <mxRectangle width="219" height="90" as="alternateBounds" />
          </mxGeometry>
        </mxCell>
        <mxCell id="zdhvOJfHrWpX8R4a8Kni-52" value="Оценка" style="shape=partialRectangle;html=1;whiteSpace=wrap;connectable=0;strokeColor=inherit;overflow=hidden;fillColor=none;top=0;left=0;bottom=0;right=0;pointerEvents=1;fontSize=16;" vertex="1" parent="zdhvOJfHrWpX8R4a8Kni-7">
          <mxGeometry x="219" width="167" height="90" as="geometry">
            <mxRectangle width="167" height="90" as="alternateBounds" />
          </mxGeometry>
        </mxCell>
        <mxCell id="zdhvOJfHrWpX8R4a8Kni-47" value="Пояснение" style="shape=partialRectangle;html=1;whiteSpace=wrap;connectable=0;strokeColor=inherit;overflow=hidden;fillColor=none;top=0;left=0;bottom=0;right=0;pointerEvents=1;fontSize=16;" vertex="1" parent="zdhvOJfHrWpX8R4a8Kni-7">
          <mxGeometry x="386" width="264" height="90" as="geometry">
            <mxRectangle width="264" height="90" as="alternateBounds" />
          </mxGeometry>
        </mxCell>
        <mxCell id="zdhvOJfHrWpX8R4a8Kni-42" value="Оценка" style="shape=partialRectangle;html=1;whiteSpace=wrap;connectable=0;strokeColor=inherit;overflow=hidden;fillColor=none;top=0;left=0;bottom=0;right=0;pointerEvents=1;fontSize=16;" vertex="1" parent="zdhvOJfHrWpX8R4a8Kni-7">
          <mxGeometry x="650" width="140" height="90" as="geometry">
            <mxRectangle width="140" height="90" as="alternateBounds" />
          </mxGeometry>
        </mxCell>
        <mxCell id="zdhvOJfHrWpX8R4a8Kni-37" value="Пояснение" style="shape=partialRectangle;html=1;whiteSpace=wrap;connectable=0;strokeColor=inherit;overflow=hidden;fillColor=none;top=0;left=0;bottom=0;right=0;pointerEvents=1;fontSize=16;" vertex="1" parent="zdhvOJfHrWpX8R4a8Kni-7">
          <mxGeometry x="790" width="240" height="90" as="geometry">
            <mxRectangle width="240" height="90" as="alternateBounds" />
          </mxGeometry>
        </mxCell>
        <mxCell id="zdhvOJfHrWpX8R4a8Kni-32" value="Оценка" style="shape=partialRectangle;html=1;whiteSpace=wrap;connectable=0;strokeColor=inherit;overflow=hidden;fillColor=none;top=0;left=0;bottom=0;right=0;pointerEvents=1;fontSize=16;" vertex="1" parent="zdhvOJfHrWpX8R4a8Kni-7">
          <mxGeometry x="1030" width="130" height="90" as="geometry">
            <mxRectangle width="130" height="90" as="alternateBounds" />
          </mxGeometry>
        </mxCell>
        <mxCell id="zdhvOJfHrWpX8R4a8Kni-57" value="Пояснение" style="shape=partialRectangle;html=1;whiteSpace=wrap;connectable=0;strokeColor=inherit;overflow=hidden;fillColor=none;top=0;left=0;bottom=0;right=0;pointerEvents=1;fontSize=16;" vertex="1" parent="zdhvOJfHrWpX8R4a8Kni-7">
          <mxGeometry x="1160" width="420" height="90" as="geometry">
            <mxRectangle width="420" height="90" as="alternateBounds" />
          </mxGeometry>
        </mxCell>
        <mxCell id="zdhvOJfHrWpX8R4a8Kni-9" value="Оценка" style="shape=partialRectangle;html=1;whiteSpace=wrap;connectable=0;strokeColor=inherit;overflow=hidden;fillColor=none;top=0;left=0;bottom=0;right=0;pointerEvents=1;fontSize=16;" vertex="1" parent="zdhvOJfHrWpX8R4a8Kni-7">
          <mxGeometry x="1580" width="130" height="90" as="geometry">
            <mxRectangle width="130" height="90" as="alternateBounds" />
          </mxGeometry>
        </mxCell>
        <mxCell id="zdhvOJfHrWpX8R4a8Kni-10" value="Пояснение" style="shape=partialRectangle;html=1;whiteSpace=wrap;connectable=0;strokeColor=inherit;overflow=hidden;fillColor=none;top=0;left=0;bottom=0;right=0;pointerEvents=1;fontSize=16;" vertex="1" parent="zdhvOJfHrWpX8R4a8Kni-7">
          <mxGeometry x="1710" width="310" height="90" as="geometry">
            <mxRectangle width="310" height="90" as="alternateBounds" />
          </mxGeometry>
        </mxCell>
        <mxCell id="zdhvOJfHrWpX8R4a8Kni-11" value="" style="shape=tableRow;horizontal=0;startSize=0;swimlaneHead=0;swimlaneBody=0;strokeColor=inherit;top=0;left=0;bottom=0;right=0;collapsible=0;dropTarget=0;fillColor=none;points=[[0,0.5],[1,0.5]];portConstraint=eastwest;fontSize=16;" vertex="1" parent="zdhvOJfHrWpX8R4a8Kni-6">
          <mxGeometry y="90" width="2020" height="139" as="geometry" />
        </mxCell>
        <mxCell id="zdhvOJfHrWpX8R4a8Kni-12" value="Утечка данных" style="shape=partialRectangle;html=1;whiteSpace=wrap;connectable=0;strokeColor=inherit;overflow=hidden;fillColor=none;top=0;left=0;bottom=0;right=0;pointerEvents=1;fontSize=16;" vertex="1" parent="zdhvOJfHrWpX8R4a8Kni-11">
          <mxGeometry width="219" height="139" as="geometry">
            <mxRectangle width="219" height="139" as="alternateBounds" />
          </mxGeometry>
        </mxCell>
        <mxCell id="zdhvOJfHrWpX8R4a8Kni-53" value="Незначительный" style="shape=partialRectangle;html=1;whiteSpace=wrap;connectable=0;strokeColor=inherit;overflow=hidden;fillColor=none;top=0;left=0;bottom=0;right=0;pointerEvents=1;fontSize=16;" vertex="1" parent="zdhvOJfHrWpX8R4a8Kni-11">
          <mxGeometry x="219" width="167" height="139" as="geometry">
            <mxRectangle width="167" height="139" as="alternateBounds" />
          </mxGeometry>
        </mxCell>
        <mxCell id="zdhvOJfHrWpX8R4a8Kni-48" value="Данные публичные, прямого или репутационного риска нет" style="shape=partialRectangle;html=1;whiteSpace=wrap;connectable=0;strokeColor=inherit;overflow=hidden;fillColor=none;top=0;left=0;bottom=0;right=0;pointerEvents=1;fontSize=16;" vertex="1" parent="zdhvOJfHrWpX8R4a8Kni-11">
          <mxGeometry x="386" width="264" height="139" as="geometry">
            <mxRectangle width="264" height="139" as="alternateBounds" />
          </mxGeometry>
        </mxCell>
        <mxCell id="zdhvOJfHrWpX8R4a8Kni-43" value="Значительный" style="shape=partialRectangle;html=1;whiteSpace=wrap;connectable=0;strokeColor=inherit;overflow=hidden;fillColor=none;top=0;left=0;bottom=0;right=0;pointerEvents=1;fontSize=16;" vertex="1" parent="zdhvOJfHrWpX8R4a8Kni-11">
          <mxGeometry x="650" width="140" height="139" as="geometry">
            <mxRectangle width="140" height="139" as="alternateBounds" />
          </mxGeometry>
        </mxCell>
        <mxCell id="zdhvOJfHrWpX8R4a8Kni-38" value="Дает представление о процессах внутри компании, целях. Может быть полезно конкурентам или (возможно) отпугнуть клиентов" style="shape=partialRectangle;html=1;whiteSpace=wrap;connectable=0;strokeColor=inherit;overflow=hidden;fillColor=none;top=0;left=0;bottom=0;right=0;pointerEvents=1;fontSize=16;" vertex="1" parent="zdhvOJfHrWpX8R4a8Kni-11">
          <mxGeometry x="790" width="240" height="139" as="geometry">
            <mxRectangle width="240" height="139" as="alternateBounds" />
          </mxGeometry>
        </mxCell>
        <mxCell id="zdhvOJfHrWpX8R4a8Kni-33" value="Критический" style="shape=partialRectangle;html=1;whiteSpace=wrap;connectable=0;strokeColor=inherit;overflow=hidden;fillColor=none;top=0;left=0;bottom=0;right=0;pointerEvents=1;fontSize=16;" vertex="1" parent="zdhvOJfHrWpX8R4a8Kni-11">
          <mxGeometry x="1030" width="130" height="139" as="geometry">
            <mxRectangle width="130" height="139" as="alternateBounds" />
          </mxGeometry>
        </mxCell>
        <mxCell id="zdhvOJfHrWpX8R4a8Kni-58" value="Нарушение ФЗ 152" style="shape=partialRectangle;html=1;whiteSpace=wrap;connectable=0;strokeColor=inherit;overflow=hidden;fillColor=none;top=0;left=0;bottom=0;right=0;pointerEvents=1;fontSize=16;" vertex="1" parent="zdhvOJfHrWpX8R4a8Kni-11">
          <mxGeometry x="1160" width="420" height="139" as="geometry">
            <mxRectangle width="420" height="139" as="alternateBounds" />
          </mxGeometry>
        </mxCell>
        <mxCell id="zdhvOJfHrWpX8R4a8Kni-13" value="Критический" style="shape=partialRectangle;html=1;whiteSpace=wrap;connectable=0;strokeColor=inherit;overflow=hidden;fillColor=none;top=0;left=0;bottom=0;right=0;pointerEvents=1;fontSize=16;" vertex="1" parent="zdhvOJfHrWpX8R4a8Kni-11">
          <mxGeometry x="1580" width="130" height="139" as="geometry">
            <mxRectangle width="130" height="139" as="alternateBounds" />
          </mxGeometry>
        </mxCell>
        <mxCell id="zdhvOJfHrWpX8R4a8Kni-14" value="Риск несанкционированного доступа к любым данным, выполнения транзакций и тд" style="shape=partialRectangle;html=1;whiteSpace=wrap;connectable=0;strokeColor=inherit;overflow=hidden;fillColor=none;top=0;left=0;bottom=0;right=0;pointerEvents=1;fontSize=16;" vertex="1" parent="zdhvOJfHrWpX8R4a8Kni-11">
          <mxGeometry x="1710" width="310" height="139" as="geometry">
            <mxRectangle width="310" height="139" as="alternateBounds" />
          </mxGeometry>
        </mxCell>
        <mxCell id="zdhvOJfHrWpX8R4a8Kni-15" value="" style="shape=tableRow;horizontal=0;startSize=0;swimlaneHead=0;swimlaneBody=0;strokeColor=inherit;top=0;left=0;bottom=0;right=0;collapsible=0;dropTarget=0;fillColor=none;points=[[0,0.5],[1,0.5]];portConstraint=eastwest;fontSize=16;" vertex="1" parent="zdhvOJfHrWpX8R4a8Kni-6">
          <mxGeometry y="229" width="2020" height="181" as="geometry" />
        </mxCell>
        <mxCell id="zdhvOJfHrWpX8R4a8Kni-16" value="Потеря данных" style="shape=partialRectangle;html=1;whiteSpace=wrap;connectable=0;strokeColor=inherit;overflow=hidden;fillColor=none;top=0;left=0;bottom=0;right=0;pointerEvents=1;fontSize=16;" vertex="1" parent="zdhvOJfHrWpX8R4a8Kni-15">
          <mxGeometry width="219" height="181" as="geometry">
            <mxRectangle width="219" height="181" as="alternateBounds" />
          </mxGeometry>
        </mxCell>
        <mxCell id="zdhvOJfHrWpX8R4a8Kni-54" value="Значительный" style="shape=partialRectangle;html=1;whiteSpace=wrap;connectable=0;strokeColor=inherit;overflow=hidden;fillColor=none;top=0;left=0;bottom=0;right=0;pointerEvents=1;fontSize=16;" vertex="1" parent="zdhvOJfHrWpX8R4a8Kni-15">
          <mxGeometry x="219" width="167" height="181" as="geometry">
            <mxRectangle width="167" height="181" as="alternateBounds" />
          </mxGeometry>
        </mxCell>
        <mxCell id="zdhvOJfHrWpX8R4a8Kni-49" value="Данные были изначально собраны, в них были вложены средства и силы. Восстанавливать их будет затратно" style="shape=partialRectangle;html=1;whiteSpace=wrap;connectable=0;strokeColor=inherit;overflow=hidden;fillColor=none;top=0;left=0;bottom=0;right=0;pointerEvents=1;fontSize=16;" vertex="1" parent="zdhvOJfHrWpX8R4a8Kni-15">
          <mxGeometry x="386" width="264" height="181" as="geometry">
            <mxRectangle width="264" height="181" as="alternateBounds" />
          </mxGeometry>
        </mxCell>
        <mxCell id="zdhvOJfHrWpX8R4a8Kni-44" value="Значительный" style="shape=partialRectangle;html=1;whiteSpace=wrap;connectable=0;strokeColor=inherit;overflow=hidden;fillColor=none;top=0;left=0;bottom=0;right=0;pointerEvents=1;fontSize=16;" vertex="1" parent="zdhvOJfHrWpX8R4a8Kni-15">
          <mxGeometry x="650" width="140" height="181" as="geometry">
            <mxRectangle width="140" height="181" as="alternateBounds" />
          </mxGeometry>
        </mxCell>
        <mxCell id="zdhvOJfHrWpX8R4a8Kni-39" value="Влияет на принятие решений и планирование" style="shape=partialRectangle;html=1;whiteSpace=wrap;connectable=0;strokeColor=inherit;overflow=hidden;fillColor=none;top=0;left=0;bottom=0;right=0;pointerEvents=1;fontSize=16;" vertex="1" parent="zdhvOJfHrWpX8R4a8Kni-15">
          <mxGeometry x="790" width="240" height="181" as="geometry">
            <mxRectangle width="240" height="181" as="alternateBounds" />
          </mxGeometry>
        </mxCell>
        <mxCell id="zdhvOJfHrWpX8R4a8Kni-34" value="Критический" style="shape=partialRectangle;html=1;whiteSpace=wrap;connectable=0;strokeColor=inherit;overflow=hidden;fillColor=none;top=0;left=0;bottom=0;right=0;pointerEvents=1;fontSize=16;" vertex="1" parent="zdhvOJfHrWpX8R4a8Kni-15">
          <mxGeometry x="1030" width="130" height="181" as="geometry">
            <mxRectangle width="130" height="181" as="alternateBounds" />
          </mxGeometry>
        </mxCell>
        <mxCell id="zdhvOJfHrWpX8R4a8Kni-59" value="Как минимум, подрыв доверия от собствеников и клиентов, большие репутационные издержки. В худшем - нарушение договоров и обязательств" style="shape=partialRectangle;html=1;whiteSpace=wrap;connectable=0;strokeColor=inherit;overflow=hidden;fillColor=none;top=0;left=0;bottom=0;right=0;pointerEvents=1;fontSize=16;" vertex="1" parent="zdhvOJfHrWpX8R4a8Kni-15">
          <mxGeometry x="1160" width="420" height="181" as="geometry">
            <mxRectangle width="420" height="181" as="alternateBounds" />
          </mxGeometry>
        </mxCell>
        <mxCell id="zdhvOJfHrWpX8R4a8Kni-17" value="Критический" style="shape=partialRectangle;html=1;whiteSpace=wrap;connectable=0;strokeColor=inherit;overflow=hidden;fillColor=none;top=0;left=0;bottom=0;right=0;pointerEvents=1;fontSize=16;" vertex="1" parent="zdhvOJfHrWpX8R4a8Kni-15">
          <mxGeometry x="1580" width="130" height="181" as="geometry">
            <mxRectangle width="130" height="181" as="alternateBounds" />
          </mxGeometry>
        </mxCell>
        <mxCell id="zdhvOJfHrWpX8R4a8Kni-18" value="Ведет к приостановке работы сервисов и сделок. Прямые финансовые последствия" style="shape=partialRectangle;html=1;whiteSpace=wrap;connectable=0;strokeColor=inherit;overflow=hidden;fillColor=none;top=0;left=0;bottom=0;right=0;pointerEvents=1;fontSize=16;" vertex="1" parent="zdhvOJfHrWpX8R4a8Kni-15">
          <mxGeometry x="1710" width="310" height="181" as="geometry">
            <mxRectangle width="310" height="181" as="alternateBounds" />
          </mxGeometry>
        </mxCell>
        <mxCell id="zdhvOJfHrWpX8R4a8Kni-22" style="shape=tableRow;horizontal=0;startSize=0;swimlaneHead=0;swimlaneBody=0;strokeColor=inherit;top=0;left=0;bottom=0;right=0;collapsible=0;dropTarget=0;fillColor=none;points=[[0,0.5],[1,0.5]];portConstraint=eastwest;fontSize=16;" vertex="1" parent="zdhvOJfHrWpX8R4a8Kni-6">
          <mxGeometry y="410" width="2020" height="186" as="geometry" />
        </mxCell>
        <mxCell id="zdhvOJfHrWpX8R4a8Kni-23" value="Обесценивание данных" style="shape=partialRectangle;html=1;whiteSpace=wrap;connectable=0;strokeColor=inherit;overflow=hidden;fillColor=none;top=0;left=0;bottom=0;right=0;pointerEvents=1;fontSize=16;" vertex="1" parent="zdhvOJfHrWpX8R4a8Kni-22">
          <mxGeometry width="219" height="186" as="geometry">
            <mxRectangle width="219" height="186" as="alternateBounds" />
          </mxGeometry>
        </mxCell>
        <mxCell id="zdhvOJfHrWpX8R4a8Kni-55" value="Незначительный" style="shape=partialRectangle;html=1;whiteSpace=wrap;connectable=0;strokeColor=inherit;overflow=hidden;fillColor=none;top=0;left=0;bottom=0;right=0;pointerEvents=1;fontSize=16;" vertex="1" parent="zdhvOJfHrWpX8R4a8Kni-22">
          <mxGeometry x="219" width="167" height="186" as="geometry">
            <mxRectangle width="167" height="186" as="alternateBounds" />
          </mxGeometry>
        </mxCell>
        <mxCell id="zdhvOJfHrWpX8R4a8Kni-50" value="Устаревшие и неактуальные данные могут сказаться на репутации, но лучше чем ничего" style="shape=partialRectangle;html=1;whiteSpace=wrap;connectable=0;strokeColor=inherit;overflow=hidden;fillColor=none;top=0;left=0;bottom=0;right=0;pointerEvents=1;fontSize=16;" vertex="1" parent="zdhvOJfHrWpX8R4a8Kni-22">
          <mxGeometry x="386" width="264" height="186" as="geometry">
            <mxRectangle width="264" height="186" as="alternateBounds" />
          </mxGeometry>
        </mxCell>
        <mxCell id="zdhvOJfHrWpX8R4a8Kni-45" value="Незначительный" style="shape=partialRectangle;html=1;whiteSpace=wrap;connectable=0;strokeColor=inherit;overflow=hidden;fillColor=none;top=0;left=0;bottom=0;right=0;pointerEvents=1;fontSize=16;" vertex="1" parent="zdhvOJfHrWpX8R4a8Kni-22">
          <mxGeometry x="650" width="140" height="186" as="geometry">
            <mxRectangle width="140" height="186" as="alternateBounds" />
          </mxGeometry>
        </mxCell>
        <mxCell id="zdhvOJfHrWpX8R4a8Kni-40" value="Для таких данных нормально быстро обесцениваться,&amp;nbsp; они актуальны в моменте" style="shape=partialRectangle;html=1;whiteSpace=wrap;connectable=0;strokeColor=inherit;overflow=hidden;fillColor=none;top=0;left=0;bottom=0;right=0;pointerEvents=1;fontSize=16;" vertex="1" parent="zdhvOJfHrWpX8R4a8Kni-22">
          <mxGeometry x="790" width="240" height="186" as="geometry">
            <mxRectangle width="240" height="186" as="alternateBounds" />
          </mxGeometry>
        </mxCell>
        <mxCell id="zdhvOJfHrWpX8R4a8Kni-35" value="Значительный" style="shape=partialRectangle;html=1;whiteSpace=wrap;connectable=0;strokeColor=inherit;overflow=hidden;fillColor=none;top=0;left=0;bottom=0;right=0;pointerEvents=1;fontSize=16;" vertex="1" parent="zdhvOJfHrWpX8R4a8Kni-22">
          <mxGeometry x="1030" width="130" height="186" as="geometry">
            <mxRectangle width="130" height="186" as="alternateBounds" />
          </mxGeometry>
        </mxCell>
        <mxCell id="zdhvOJfHrWpX8R4a8Kni-60" value="Если данные перестанут быть актуальными, это может затормозить или поломать процессы. Приведет к обновлениям договоров и тп, опять же издержки репутационные" style="shape=partialRectangle;html=1;whiteSpace=wrap;connectable=0;strokeColor=inherit;overflow=hidden;fillColor=none;top=0;left=0;bottom=0;right=0;pointerEvents=1;fontSize=16;" vertex="1" parent="zdhvOJfHrWpX8R4a8Kni-22">
          <mxGeometry x="1160" width="420" height="186" as="geometry">
            <mxRectangle width="420" height="186" as="alternateBounds" />
          </mxGeometry>
        </mxCell>
        <mxCell id="zdhvOJfHrWpX8R4a8Kni-24" value="Значительный" style="shape=partialRectangle;html=1;whiteSpace=wrap;connectable=0;strokeColor=inherit;overflow=hidden;fillColor=none;top=0;left=0;bottom=0;right=0;pointerEvents=1;fontSize=16;" vertex="1" parent="zdhvOJfHrWpX8R4a8Kni-22">
          <mxGeometry x="1580" width="130" height="186" as="geometry">
            <mxRectangle width="130" height="186" as="alternateBounds" />
          </mxGeometry>
        </mxCell>
        <mxCell id="zdhvOJfHrWpX8R4a8Kni-25" value="Со временем обесценивание этих данных может стать эквивалентом утечки данных" style="shape=partialRectangle;html=1;whiteSpace=wrap;connectable=0;strokeColor=inherit;overflow=hidden;fillColor=none;top=0;left=0;bottom=0;right=0;pointerEvents=1;fontSize=16;" vertex="1" parent="zdhvOJfHrWpX8R4a8Kni-22">
          <mxGeometry x="1710" width="310" height="186" as="geometry">
            <mxRectangle width="310" height="186" as="alternateBounds" />
          </mxGeometry>
        </mxCell>
        <mxCell id="zdhvOJfHrWpX8R4a8Kni-75" style="shape=tableRow;horizontal=0;startSize=0;swimlaneHead=0;swimlaneBody=0;strokeColor=inherit;top=0;left=0;bottom=0;right=0;collapsible=0;dropTarget=0;fillColor=none;points=[[0,0.5],[1,0.5]];portConstraint=eastwest;fontSize=16;" vertex="1" parent="zdhvOJfHrWpX8R4a8Kni-6">
          <mxGeometry y="596" width="2020" height="315" as="geometry" />
        </mxCell>
        <mxCell id="zdhvOJfHrWpX8R4a8Kni-76" value="Искажение данных" style="shape=partialRectangle;html=1;whiteSpace=wrap;connectable=0;strokeColor=inherit;overflow=hidden;fillColor=none;top=0;left=0;bottom=0;right=0;pointerEvents=1;fontSize=16;" vertex="1" parent="zdhvOJfHrWpX8R4a8Kni-75">
          <mxGeometry width="219" height="315" as="geometry">
            <mxRectangle width="219" height="315" as="alternateBounds" />
          </mxGeometry>
        </mxCell>
        <mxCell id="zdhvOJfHrWpX8R4a8Kni-77" value="Значительный" style="shape=partialRectangle;html=1;whiteSpace=wrap;connectable=0;strokeColor=inherit;overflow=hidden;fillColor=none;top=0;left=0;bottom=0;right=0;pointerEvents=1;fontSize=16;" vertex="1" parent="zdhvOJfHrWpX8R4a8Kni-75">
          <mxGeometry x="219" width="167" height="315" as="geometry">
            <mxRectangle width="167" height="315" as="alternateBounds" />
          </mxGeometry>
        </mxCell>
        <mxCell id="zdhvOJfHrWpX8R4a8Kni-78" value="Ложные данные вводят пользователей в заблуждение, это репутационные риски (кто-то и отказаться от услуг может)" style="shape=partialRectangle;html=1;whiteSpace=wrap;connectable=0;strokeColor=inherit;overflow=hidden;fillColor=none;top=0;left=0;bottom=0;right=0;pointerEvents=1;fontSize=16;" vertex="1" parent="zdhvOJfHrWpX8R4a8Kni-75">
          <mxGeometry x="386" width="264" height="315" as="geometry">
            <mxRectangle width="264" height="315" as="alternateBounds" />
          </mxGeometry>
        </mxCell>
        <mxCell id="zdhvOJfHrWpX8R4a8Kni-79" value="Значительный" style="shape=partialRectangle;html=1;whiteSpace=wrap;connectable=0;strokeColor=inherit;overflow=hidden;fillColor=none;top=0;left=0;bottom=0;right=0;pointerEvents=1;fontSize=16;" vertex="1" parent="zdhvOJfHrWpX8R4a8Kni-75">
          <mxGeometry x="650" width="140" height="315" as="geometry">
            <mxRectangle width="140" height="315" as="alternateBounds" />
          </mxGeometry>
        </mxCell>
        <mxCell id="zdhvOJfHrWpX8R4a8Kni-80" value="Если данные искажены, могут быть приняты неправильные решения и выводы. Это может стоить дорого бизнесу" style="shape=partialRectangle;html=1;whiteSpace=wrap;connectable=0;strokeColor=inherit;overflow=hidden;fillColor=none;top=0;left=0;bottom=0;right=0;pointerEvents=1;fontSize=16;" vertex="1" parent="zdhvOJfHrWpX8R4a8Kni-75">
          <mxGeometry x="790" width="240" height="315" as="geometry">
            <mxRectangle width="240" height="315" as="alternateBounds" />
          </mxGeometry>
        </mxCell>
        <mxCell id="zdhvOJfHrWpX8R4a8Kni-81" value="Критический" style="shape=partialRectangle;html=1;whiteSpace=wrap;connectable=0;strokeColor=inherit;overflow=hidden;fillColor=none;top=0;left=0;bottom=0;right=0;pointerEvents=1;fontSize=16;" vertex="1" parent="zdhvOJfHrWpX8R4a8Kni-75">
          <mxGeometry x="1030" width="130" height="315" as="geometry">
            <mxRectangle width="130" height="315" as="alternateBounds" />
          </mxGeometry>
        </mxCell>
        <mxCell id="zdhvOJfHrWpX8R4a8Kni-82" value="Может привести к некорректным договорам, не имеющим юридической силы и тд. Очень опасно для бизнеса в любом проявлении." style="shape=partialRectangle;html=1;whiteSpace=wrap;connectable=0;strokeColor=inherit;overflow=hidden;fillColor=none;top=0;left=0;bottom=0;right=0;pointerEvents=1;fontSize=16;" vertex="1" parent="zdhvOJfHrWpX8R4a8Kni-75">
          <mxGeometry x="1160" width="420" height="315" as="geometry">
            <mxRectangle width="420" height="315" as="alternateBounds" />
          </mxGeometry>
        </mxCell>
        <mxCell id="zdhvOJfHrWpX8R4a8Kni-83" value="Критический" style="shape=partialRectangle;html=1;whiteSpace=wrap;connectable=0;strokeColor=inherit;overflow=hidden;fillColor=none;top=0;left=0;bottom=0;right=0;pointerEvents=1;fontSize=16;" vertex="1" parent="zdhvOJfHrWpX8R4a8Kni-75">
          <mxGeometry x="1580" width="130" height="315" as="geometry">
            <mxRectangle width="130" height="315" as="alternateBounds" />
          </mxGeometry>
        </mxCell>
        <mxCell id="zdhvOJfHrWpX8R4a8Kni-84" value="Нарушение работы сервисов (если речь про ключи/пароли). Для бухгалтерии или документооборота это скорее всего судебный прецедент" style="shape=partialRectangle;html=1;whiteSpace=wrap;connectable=0;strokeColor=inherit;overflow=hidden;fillColor=none;top=0;left=0;bottom=0;right=0;pointerEvents=1;fontSize=16;" vertex="1" parent="zdhvOJfHrWpX8R4a8Kni-75">
          <mxGeometry x="1710" width="310" height="315" as="geometry">
            <mxRectangle width="310" height="315" as="alternateBounds" />
          </mxGeometry>
        </mxCell>
        <mxCell id="zdhvOJfHrWpX8R4a8Kni-65" style="shape=tableRow;horizontal=0;startSize=0;swimlaneHead=0;swimlaneBody=0;strokeColor=inherit;top=0;left=0;bottom=0;right=0;collapsible=0;dropTarget=0;fillColor=none;points=[[0,0.5],[1,0.5]];portConstraint=eastwest;fontSize=16;" vertex="1" parent="zdhvOJfHrWpX8R4a8Kni-6">
          <mxGeometry y="911" width="2020" height="315" as="geometry" />
        </mxCell>
        <mxCell id="zdhvOJfHrWpX8R4a8Kni-66" value="Некачественные данные" style="shape=partialRectangle;html=1;whiteSpace=wrap;connectable=0;strokeColor=inherit;overflow=hidden;fillColor=none;top=0;left=0;bottom=0;right=0;pointerEvents=1;fontSize=16;" vertex="1" parent="zdhvOJfHrWpX8R4a8Kni-65">
          <mxGeometry width="219" height="315" as="geometry">
            <mxRectangle width="219" height="315" as="alternateBounds" />
          </mxGeometry>
        </mxCell>
        <mxCell id="zdhvOJfHrWpX8R4a8Kni-67" value="Значительный" style="shape=partialRectangle;html=1;whiteSpace=wrap;connectable=0;strokeColor=inherit;overflow=hidden;fillColor=none;top=0;left=0;bottom=0;right=0;pointerEvents=1;fontSize=16;" vertex="1" parent="zdhvOJfHrWpX8R4a8Kni-65">
          <mxGeometry x="219" width="167" height="315" as="geometry">
            <mxRectangle width="167" height="315" as="alternateBounds" />
          </mxGeometry>
        </mxCell>
        <mxCell id="zdhvOJfHrWpX8R4a8Kni-68" value="Низкое качество данных приводит к потере репутации. Похоже на искажение данных, пользователи могут отказаться от услуг" style="shape=partialRectangle;html=1;whiteSpace=wrap;connectable=0;strokeColor=inherit;overflow=hidden;fillColor=none;top=0;left=0;bottom=0;right=0;pointerEvents=1;fontSize=16;" vertex="1" parent="zdhvOJfHrWpX8R4a8Kni-65">
          <mxGeometry x="386" width="264" height="315" as="geometry">
            <mxRectangle width="264" height="315" as="alternateBounds" />
          </mxGeometry>
        </mxCell>
        <mxCell id="zdhvOJfHrWpX8R4a8Kni-69" value="Значительный" style="shape=partialRectangle;html=1;whiteSpace=wrap;connectable=0;strokeColor=inherit;overflow=hidden;fillColor=none;top=0;left=0;bottom=0;right=0;pointerEvents=1;fontSize=16;" vertex="1" parent="zdhvOJfHrWpX8R4a8Kni-65">
          <mxGeometry x="650" width="140" height="315" as="geometry">
            <mxRectangle width="140" height="315" as="alternateBounds" />
          </mxGeometry>
        </mxCell>
        <mxCell id="zdhvOJfHrWpX8R4a8Kni-70" value="Также как и искажение данных - приводит к неправильным решениям и выводам, может быть опасно для бизнеса" style="shape=partialRectangle;html=1;whiteSpace=wrap;connectable=0;strokeColor=inherit;overflow=hidden;fillColor=none;top=0;left=0;bottom=0;right=0;pointerEvents=1;fontSize=16;" vertex="1" parent="zdhvOJfHrWpX8R4a8Kni-65">
          <mxGeometry x="790" width="240" height="315" as="geometry">
            <mxRectangle width="240" height="315" as="alternateBounds" />
          </mxGeometry>
        </mxCell>
        <mxCell id="zdhvOJfHrWpX8R4a8Kni-71" value="Значительный" style="shape=partialRectangle;html=1;whiteSpace=wrap;connectable=0;strokeColor=inherit;overflow=hidden;fillColor=none;top=0;left=0;bottom=0;right=0;pointerEvents=1;fontSize=16;" vertex="1" parent="zdhvOJfHrWpX8R4a8Kni-65">
          <mxGeometry x="1030" width="130" height="315" as="geometry">
            <mxRectangle width="130" height="315" as="alternateBounds" />
          </mxGeometry>
        </mxCell>
        <mxCell id="zdhvOJfHrWpX8R4a8Kni-72" value="Похоже на обесцененные данные - усложняет процессы, подрывает доверие клиентов, увеличивает сроки на решение проблем/заключение договоров/..." style="shape=partialRectangle;html=1;whiteSpace=wrap;connectable=0;strokeColor=inherit;overflow=hidden;fillColor=none;top=0;left=0;bottom=0;right=0;pointerEvents=1;fontSize=16;" vertex="1" parent="zdhvOJfHrWpX8R4a8Kni-65">
          <mxGeometry x="1160" width="420" height="315" as="geometry">
            <mxRectangle width="420" height="315" as="alternateBounds" />
          </mxGeometry>
        </mxCell>
        <mxCell id="zdhvOJfHrWpX8R4a8Kni-73" value="Критический" style="shape=partialRectangle;html=1;whiteSpace=wrap;connectable=0;strokeColor=inherit;overflow=hidden;fillColor=none;top=0;left=0;bottom=0;right=0;pointerEvents=1;fontSize=16;" vertex="1" parent="zdhvOJfHrWpX8R4a8Kni-65">
          <mxGeometry x="1580" width="130" height="315" as="geometry">
            <mxRectangle width="130" height="315" as="alternateBounds" />
          </mxGeometry>
        </mxCell>
        <mxCell id="zdhvOJfHrWpX8R4a8Kni-74" value="Для ключей, паролей и тд это все равно что обесцененные данные. Для бухгалтерии и документов это риски как с искажением данных" style="shape=partialRectangle;html=1;whiteSpace=wrap;connectable=0;strokeColor=inherit;overflow=hidden;fillColor=none;top=0;left=0;bottom=0;right=0;pointerEvents=1;fontSize=16;" vertex="1" parent="zdhvOJfHrWpX8R4a8Kni-65">
          <mxGeometry x="1710" width="310" height="315" as="geometry">
            <mxRectangle width="310" height="315" as="alternateBounds" />
          </mxGeometry>
        </mxCell>
      </root>
    </mxGraphModel>
  </diagram>
</mxfile>
